<svg id="Capa_1" data-name="Capa 1" xmlns="http://www.w3.org/2000/svg" viewBox="0 0 1230 506">
	<path d="M1298,384a46.29,46.29,0,0,1-43,46.4c-1,.07-2,.1-3,.1H287.35l56.44,167.25A24.75,24.75,0,0,1,347,610c0,.51,0,1-.05,1.52s.05,1,.05,1.48a24,24,0,0,1-42,15.85L76,399.9a19.74,19.74,0,0,1,0-31.8L305,139.15A24,24,0,0,1,347,155c0,.5,0,1-.05,1.48s.05,1,.05,1.52a24.91,24.91,0,0,1-2.07,10l.07,0L287.8,337.5H1252c1,0,2,0,3,.1A46.29,46.29,0,0,1,1298,384Z" transform="translate(-68 -131)"/>
	<path d="M1231,337.5v.1c-1-.07-2-.1-3-.1Z" transform="translate(-68 -131)"/>
	<path d="M1228,430.5c1,0,2,0,3-.1v.1Z" transform="translate(-68 -131)"/>
</svg>