<svg width="200px" height="200px" viewBox="0 0 24.00 24.00" fill="currentcolor" xmlns="http://www.w3.org/2000/svg" stroke="currentcolor" stroke-width="0">
    <path clip-rule="evenodd" d="M10.4269 2.42148C11.4003 1.85951 12.5996 1.8595 13.573 2.42148L19.5087 5.84848C20.4821 6.41046 21.0817 7.44904 21.0817 8.573V15.427C21.0817 16.551 20.4821 17.5895 19.5087 18.1515L13.573 21.5785C12.5996 22.1405 11.4003 22.1405 10.4269 21.5785L4.49122 18.1515C3.51784 17.5895 2.91821 16.551 2.91821 15.427V8.573C2.91821 7.44904 3.51784 6.41046 4.49122 5.84848L10.4269 2.42148ZM15.75 12C15.75 12.4142 15.4142 12.75 15 12.75H12.75V15C12.75 15.4142 12.4142 15.75 12 15.75C11.5858 15.75 11.25 15.4142 11.25 15V12.75H9C8.58579 12.75 8.25 12.4142 8.25 12C8.25 11.5858 8.58579 11.25 9 11.25H11.25V9C11.25 8.58579 11.5858 8.25 12 8.25C12.4142 8.25 12.75 8.58579 12.75 9V11.25H15C15.4142 11.25 15.75 11.5858 15.75 12Z" fill="currentcolor" fill-rule="evenodd"></path>
</svg>